# xmcd
#
# Track frame offsets: 
#        150
#        1066
#        21584
#        37705
#        50251
#        67341
#        81484
#        100596
#        120948
#        143916
#        177540
#        194471
#
# Disc length: 2918 seconds
#
# Revision: 1
# Processed by: cddbd v1.5.2PL0 Copyright (c) Steve Scherf et al.
# Submitted via: ExactAudioCopy v0.90b4
#
DISCID=9d0b640c
DTITLE=Kristofer Åström - Sinkadus
DYEAR=2009
DGENRE=Rock
TTITLE0=Presentacion
TTITLE1=Come Out
TTITLE2=The Party
TTITLE3=Blind Motherfucker
TTITLE4=Twentyseven
TTITLE5=When Her Eyes Turn Blue
TTITLE6=Big Lie, Idiot Die
TTITLE7=Hard to Live
TTITLE8=A Song for While I'm Away
TTITLE9=Me and the Snakes
TTITLE10=Oh, Man
TTITLE11=Old Man's Car
EXTD=
EXTT0=
EXTT1=
EXTT2=
EXTT3=
EXTT4=
EXTT5=
EXTT6=
EXTT7=
EXTT8=
EXTT9=
EXTT10=
EXTT11=
PLAYORDER=
